<svg xmlns="http://www.w3.org/2000/svg" viewBox="0 0 1000.00 2909.17" width="1000.00" height="2909.17" role="img" aria-label="019c128d-6d16-4e8d-802c-56b5a803fc25"><g transform="translate(1000.00 0) rotate(90)"><g transform="scale(0.908265)"><path d="M 390.00 711.00 L 371.00 443.00 L 76.00 443.00 Q 54.00 400.00 42.00 346.50 Q 30.00 293.00 30.00 244.00 Q 30.00 182.00 54.50 134.00 Q 79.00 86.00 123.50 58.00 Q 168.00 30.00 228.00 30.00 Q 301.00 30.00 346.50 64.00 Q 392.00 98.00 415.50 171.50 Q 439.00 245.00 445.00 363.00 L 685.00 363.00 L 685.00 443.00 L 475.00 443.00 L 456.00 711.00 L 390.00 711.00 Z M 365.00 363.00 Q 361.00 234.00 328.50 173.50 Q 296.00 113.00 228.00 113.00 Q 174.00 113.00 141.50 147.50 Q 109.00 182.00 109.00 244.00 Q 109.00 319.00 132.00 363.00 L 365.00 363.00 Z M 852.00 767.00 Q 755.00 767.00 705.00 712.00 Q 655.00 657.00 655.00 558.00 Q 655.00 491.00 675.00 443.00 L 655.00 443.00 L 655.00 363.00 L 1258.00 363.00 L 1258.00 443.00 L 1028.00 443.00 Q 1050.00 491.00 1050.00 558.00 Q 1050.00 652.00 998.50 709.50 Q 947.00 767.00 852.00 767.00 Z M 852.00 684.00 Q 908.00 684.00 939.50 652.00 Q 971.00 620.00 971.00 556.00 Q 971.00 491.00 951.00 443.00 L 754.00 443.00 Q 734.00 491.00 734.00 556.00 Q 734.00 684.00 852.00 684.00 Z M 1247.00 711.00 L 1228.00 443.00 L 1228.00 363.00 L 1244.00 363.00 Q 1249.00 255.00 1290.00 168.00 L 1256.00 168.00 Q 1195.00 168.00 1150.50 162.00 Q 1106.00 156.00 1076.00 130.00 L 1076.00 52.00 Q 1114.00 77.00 1158.50 82.50 Q 1203.00 88.00 1256.00 88.00 L 1376.00 88.00 L 1376.00 154.00 Q 1347.00 208.00 1331.50 257.50 Q 1316.00 307.00 1314.00 363.00 L 1542.00 363.00 L 1542.00 443.00 L 1332.00 443.00 L 1313.00 711.00 L 1247.00 711.00 Z M 1709.00 767.00 Q 1612.00 767.00 1562.00 712.00 Q 1512.00 657.00 1512.00 558.00 Q 1512.00 491.00 1532.00 443.00 L 1512.00 443.00 L 1512.00 363.00 L 2115.00 363.00 L 2115.00 443.00 L 1885.00 443.00 Q 1907.00 491.00 1907.00 558.00 Q 1907.00 652.00 1855.50 709.50 Q 1804.00 767.00 1709.00 767.00 Z M 1709.00 684.00 Q 1765.00 684.00 1796.50 652.00 Q 1828.00 620.00 1828.00 556.00 Q 1828.00 491.00 1808.00 443.00 L 1611.00 443.00 Q 1591.00 491.00 1591.00 556.00 Q 1591.00 684.00 1709.00 684.00 Z M 2591.00 733.00 Q 2536.00 733.00 2489.50 708.50 Q 2443.00 684.00 2408.50 643.00 Q 2374.00 602.00 2355.00 550.00 Q 2336.00 498.00 2336.00 443.00 L 2189.00 443.00 L 2170.00 711.00 L 2104.00 711.00 L 2085.00 443.00 L 2085.00 363.00 L 2406.00 363.00 Q 2406.00 463.00 2429.00 524.00 Q 2452.00 585.00 2512.00 619.00 Q 2512.00 335.00 2610.00 141.00 L 2703.00 141.00 Q 2645.00 246.00 2618.00 364.50 Q 2591.00 483.00 2591.00 621.00 L 2591.00 733.00 Z M 2817.00 671.00 L 2774.00 632.00 Q 2805.00 588.00 2835.50 551.50 Q 2866.00 515.00 2895.00 486.00 L 2956.00 555.00 Q 2913.00 586.00 2878.00 615.00 Q 2843.00 644.00 2817.00 671.00 Z M 2814.00 843.00 L 2771.00 804.00 Q 2802.00 760.00 2832.50 723.50 Q 2863.00 687.00 2892.00 658.00 L 2953.00 727.00 Q 2910.00 758.00 2875.00 787.00 Q 2840.00 816.00 2814.00 843.00 Z M 2994.00 1071.00 L 2912.00 1071.00 Q 2893.00 1040.00 2893.00 994.00 Q 2893.00 938.00 2919.00 886.00 Q 2945.00 834.00 2988.00 779.00 Q 3028.00 727.00 3051.50 689.50 Q 3075.00 652.00 3085.00 621.50 Q 3095.00 591.00 3095.00 562.00 Q 3095.00 502.00 3058.00 472.50 Q 3021.00 443.00 2941.00 443.00 L 2848.00 443.00 L 2866.00 363.00 L 2942.00 363.00 Q 3058.00 363.00 3115.50 414.50 Q 3173.00 466.00 3173.00 562.00 Q 3173.00 617.00 3142.50 682.50 Q 3112.00 748.00 3040.00 838.00 Q 3016.00 868.00 3001.00 891.50 Q 2986.00 915.00 2979.50 939.00 Q 2973.00 963.00 2973.00 994.00 Q 2973.00 1035.00 2994.00 1071.00 Z" fill="currentColor"/></g></g></svg>