<svg xmlns="http://www.w3.org/2000/svg" viewBox="0 0 1000.00 4034.94" width="1000.00" height="4034.94" role="img" aria-label="1a20fffc-8a60-4ec6-8c3c-3671d4843e45"><g transform="translate(1000.00 0) rotate(90)"><g transform="scale(0.944287)"><path d="M 147.00 765.00 Q 194.00 736.00 253.00 729.50 Q 312.00 723.00 382.00 723.00 L 418.00 723.00 Q 388.00 627.00 388.00 502.00 L 30.00 502.00 L 48.00 422.00 L 707.00 422.00 L 707.00 502.00 L 462.00 502.00 Q 462.00 565.00 472.50 621.00 Q 483.00 677.00 503.00 737.00 L 503.00 803.00 L 382.00 803.00 Q 309.00 803.00 253.50 811.00 Q 198.00 819.00 147.00 850.00 L 147.00 765.00 Z M 696.00 770.00 L 677.00 502.00 L 677.00 422.00 L 991.00 422.00 L 991.00 502.00 L 781.00 502.00 L 762.00 770.00 L 696.00 770.00 Z M 980.00 770.00 L 961.00 502.00 L 961.00 422.00 L 1559.00 422.00 L 1559.00 502.00 L 1349.00 502.00 L 1330.00 770.00 L 1264.00 770.00 L 1245.00 502.00 L 1065.00 502.00 L 1046.00 770.00 L 980.00 770.00 Z M 963.00 990.00 Q 1025.00 903.00 1084.00 844.00 L 1145.00 913.00 Q 1100.00 945.00 1065.50 974.00 Q 1031.00 1003.00 1006.00 1029.00 L 963.00 990.00 Z M 1246.00 990.00 Q 1308.00 903.00 1367.00 844.00 L 1428.00 913.00 Q 1383.00 945.00 1348.50 974.00 Q 1314.00 1003.00 1289.00 1029.00 L 1246.00 990.00 Z M 1548.00 770.00 L 1529.00 502.00 L 1529.00 422.00 L 1843.00 422.00 L 1843.00 502.00 L 1633.00 502.00 L 1614.00 770.00 L 1548.00 770.00 Z M 2041.00 813.00 Q 1961.00 808.00 1902.00 763.50 Q 1843.00 719.00 1811.50 650.00 Q 1780.00 581.00 1780.00 502.00 L 1780.00 422.00 L 1854.00 422.00 Q 1854.00 488.00 1862.00 543.00 Q 1870.00 598.00 1894.00 640.50 Q 1918.00 683.00 1964.00 710.00 Q 1964.00 558.00 1986.50 428.50 Q 2009.00 299.00 2048.50 197.50 Q 2088.00 96.00 2138.00 30.00 L 2230.00 30.00 Q 2138.00 143.00 2089.50 319.50 Q 2041.00 496.00 2041.00 710.00 L 2041.00 813.00 Z M 2943.00 793.00 Q 2927.00 708.00 2909.50 629.50 Q 2892.00 551.00 2874.00 479.00 Q 2856.00 406.00 2839.00 347.50 Q 2822.00 289.00 2806.00 246.00 L 2802.00 246.00 Q 2798.00 277.00 2791.00 312.00 Q 2784.00 347.00 2773.00 386.00 Q 2755.00 450.00 2725.50 485.00 Q 2696.00 520.00 2635.00 520.00 Q 2588.00 520.00 2545.00 495.00 L 2545.00 420.00 Q 2590.00 439.00 2630.00 439.00 Q 2675.00 439.00 2699.00 380.00 Q 2724.00 320.00 2755.00 132.00 L 2849.00 132.00 Q 2871.00 201.00 2892.00 273.50 Q 2913.00 346.00 2933.00 422.00 L 3211.00 422.00 L 3211.00 502.00 L 2954.00 502.00 Q 2971.00 570.00 2987.00 642.00 Q 3003.00 714.00 3019.00 793.00 L 2943.00 793.00 Z M 3200.00 770.00 L 3181.00 502.00 L 3181.00 422.00 L 3495.00 422.00 L 3495.00 502.00 L 3285.00 502.00 L 3266.00 770.00 L 3200.00 770.00 Z M 3638.00 933.00 Q 3623.00 905.00 3609.50 878.00 Q 3596.00 851.00 3583.00 824.00 Q 3560.00 855.00 3541.00 884.50 Q 3522.00 914.00 3517.00 925.00 L 3463.00 894.00 Q 3475.00 859.00 3485.50 834.50 Q 3496.00 810.00 3510.00 786.50 Q 3524.00 763.00 3543.00 732.00 Q 3495.00 617.00 3465.00 502.00 L 3465.00 422.00 L 3856.00 422.00 L 3856.00 502.00 L 3544.00 502.00 Q 3601.00 701.00 3711.00 897.00 L 3638.00 933.00 Z M 4054.00 813.00 Q 3974.00 808.00 3915.00 763.50 Q 3856.00 719.00 3824.50 650.00 Q 3793.00 581.00 3793.00 502.00 L 3793.00 422.00 L 3867.00 422.00 Q 3867.00 488.00 3875.00 543.00 Q 3883.00 598.00 3907.00 640.50 Q 3931.00 683.00 3977.00 710.00 Q 3977.00 558.00 3999.50 428.50 Q 4022.00 299.00 4061.50 197.50 Q 4101.00 96.00 4151.00 30.00 L 4243.00 30.00 Q 4151.00 143.00 4102.50 319.50 Q 4054.00 496.00 4054.00 710.00 L 4054.00 813.00 Z" fill="currentColor"/></g></g></svg>