<svg xmlns="http://www.w3.org/2000/svg" viewBox="0 0 1000.00 3072.74" width="1000.00" height="3072.74" role="img" aria-label="7bf7e826-59c9-4535-875c-d8c602b4356e"><g transform="translate(1000.00 0) rotate(90)"><g transform="scale(0.969932)"><path d="M 220.00 401.00 Q 216.00 337.00 200.50 300.00 Q 185.00 263.00 138.00 263.00 Q 92.00 263.00 30.00 288.00 L 30.00 215.00 Q 101.00 185.00 159.00 185.00 Q 174.00 185.00 186.50 187.00 Q 199.00 189.00 209.00 192.00 Q 192.00 148.00 164.00 122.00 L 164.00 65.00 L 285.00 65.00 Q 363.00 65.00 400.00 56.00 Q 419.00 51.00 435.00 45.00 Q 451.00 39.00 464.00 30.00 L 464.00 107.00 Q 438.00 130.00 403.00 137.00 Q 385.00 141.00 355.50 143.00 Q 326.00 145.00 285.00 145.00 L 249.00 145.00 Q 280.00 213.00 289.50 299.00 Q 299.00 385.00 301.00 477.00 L 305.00 477.00 Q 338.00 394.00 464.00 394.00 L 542.00 394.00 L 542.00 474.00 L 465.00 474.00 Q 410.00 474.00 380.50 488.00 Q 351.00 502.00 338.50 533.50 Q 326.00 565.00 322.00 619.00 L 312.00 764.00 L 246.00 764.00 L 220.00 401.00 Z M 709.00 798.00 Q 612.00 798.00 562.00 743.00 Q 512.00 688.00 512.00 589.00 Q 512.00 522.00 532.00 474.00 L 512.00 474.00 L 512.00 394.00 L 1115.00 394.00 L 1115.00 474.00 L 885.00 474.00 Q 907.00 522.00 907.00 589.00 Q 907.00 683.00 855.50 740.50 Q 804.00 798.00 709.00 798.00 Z M 709.00 715.00 Q 765.00 715.00 796.50 683.00 Q 828.00 651.00 828.00 587.00 Q 828.00 522.00 808.00 474.00 L 611.00 474.00 Q 591.00 522.00 591.00 587.00 Q 591.00 715.00 709.00 715.00 Z M 1423.00 768.00 Q 1380.00 692.00 1356.50 618.50 Q 1333.00 545.00 1328.00 474.00 L 1189.00 474.00 L 1170.00 742.00 L 1104.00 742.00 L 1085.00 474.00 L 1085.00 394.00 L 1330.00 394.00 Q 1337.00 337.00 1360.00 291.50 Q 1383.00 246.00 1425.00 219.00 Q 1467.00 192.00 1529.00 192.00 Q 1587.00 192.00 1627.00 218.50 Q 1667.00 245.00 1691.00 290.50 Q 1715.00 336.00 1725.00 394.00 L 2257.00 394.00 L 2257.00 474.00 L 2047.00 474.00 L 2028.00 742.00 L 1962.00 742.00 L 1943.00 474.00 L 1763.00 474.00 L 1744.00 742.00 L 1678.00 742.00 L 1659.00 474.00 Q 1652.00 370.00 1617.50 322.50 Q 1583.00 275.00 1529.00 275.00 Q 1411.00 275.00 1406.00 442.00 Q 1406.00 584.00 1497.00 726.00 L 1423.00 768.00 Z M 1987.00 1001.00 L 1944.00 962.00 Q 1975.00 918.00 2005.50 881.50 Q 2036.00 845.00 2065.00 816.00 L 2126.00 885.00 Q 2083.00 916.00 2048.00 945.00 Q 2013.00 974.00 1987.00 1001.00 Z M 1704.00 1001.00 L 1661.00 962.00 Q 1692.00 918.00 1722.50 881.50 Q 1753.00 845.00 1782.00 816.00 L 1843.00 885.00 Q 1800.00 916.00 1765.00 945.00 Q 1730.00 974.00 1704.00 1001.00 Z M 2424.00 798.00 Q 2327.00 798.00 2277.00 743.00 Q 2227.00 688.00 2227.00 589.00 Q 2227.00 522.00 2247.00 474.00 L 2227.00 474.00 L 2227.00 394.00 L 2830.00 394.00 L 2830.00 474.00 L 2600.00 474.00 Q 2622.00 522.00 2622.00 589.00 Q 2622.00 683.00 2570.50 740.50 Q 2519.00 798.00 2424.00 798.00 Z M 2424.00 715.00 Q 2480.00 715.00 2511.50 683.00 Q 2543.00 651.00 2543.00 587.00 Q 2543.00 522.00 2523.00 474.00 L 2326.00 474.00 Q 2306.00 522.00 2306.00 587.00 Q 2306.00 715.00 2424.00 715.00 Z M 3044.00 793.00 Q 2984.00 791.00 2933.50 764.50 Q 2883.00 738.00 2845.50 694.00 Q 2808.00 650.00 2787.50 593.50 Q 2767.00 537.00 2767.00 474.00 L 2767.00 394.00 L 2848.00 394.00 Q 2848.00 459.00 2857.00 514.00 Q 2866.00 569.00 2891.00 610.50 Q 2916.00 652.00 2965.00 679.00 Q 2965.00 400.00 3040.00 204.00 L 2962.00 204.00 Q 2923.00 204.00 2894.00 202.00 Q 2865.00 200.00 2846.00 196.00 Q 2809.00 189.00 2782.00 166.00 L 2782.00 88.00 Q 2800.00 99.00 2818.50 106.00 Q 2837.00 113.00 2855.00 117.00 Q 2874.00 121.00 2901.00 122.50 Q 2928.00 124.00 2962.00 124.00 L 3138.00 124.00 L 3138.00 185.00 Q 3086.00 303.00 3065.00 425.50 Q 3044.00 548.00 3044.00 681.00 L 3044.00 793.00 Z" fill="currentColor"/></g></g></svg>