<svg xmlns="http://www.w3.org/2000/svg" viewBox="0 0 1000.00 1568.03" width="1000.00" height="1568.03" role="img" aria-label="88d34baa-0bc2-4461-88a5-f9ce03aca5ee"><g transform="translate(1000.00 0) rotate(90)"><g transform="scale(0.951475)"><path d="M 72.00 827.00 Q 96.00 801.00 120.50 777.50 Q 145.00 754.00 171.00 732.00 Q 140.00 668.00 111.50 596.50 Q 83.00 525.00 62.00 452.50 Q 41.00 380.00 30.00 313.00 L 436.00 313.00 L 436.00 393.00 L 123.00 393.00 Q 133.00 431.00 151.00 479.50 Q 169.00 528.00 190.50 579.00 Q 212.00 630.00 235.00 678.00 Q 258.00 726.00 278.00 764.00 Q 265.00 771.00 241.50 786.00 Q 218.00 801.00 192.00 818.50 Q 166.00 836.00 143.50 851.50 Q 121.00 867.00 110.00 876.00 L 72.00 827.00 Z M 425.00 661.00 L 406.00 393.00 L 406.00 313.00 L 720.00 313.00 L 720.00 393.00 L 510.00 393.00 L 491.00 661.00 L 425.00 661.00 Z M 1357.00 1021.00 Q 1338.00 989.00 1338.00 944.00 Q 1338.00 885.00 1365.00 834.00 Q 1392.00 783.00 1433.00 729.00 Q 1484.00 663.00 1512.00 613.50 Q 1540.00 564.00 1540.00 513.00 Q 1540.00 453.00 1503.00 423.00 Q 1466.00 393.00 1386.00 393.00 L 1176.00 393.00 L 1157.00 661.00 L 1091.00 661.00 L 1072.00 396.00 Q 1066.00 311.00 1052.50 247.50 Q 1039.00 184.00 1007.50 148.50 Q 976.00 113.00 916.00 113.00 Q 847.00 113.00 806.50 168.50 Q 766.00 224.00 766.00 340.00 Q 766.00 434.00 798.00 511.00 Q 830.00 588.00 887.00 672.00 L 816.00 715.00 Q 687.00 517.00 687.00 339.00 Q 687.00 245.00 715.00 176.00 Q 743.00 107.00 794.50 68.50 Q 846.00 30.00 916.00 30.00 Q 991.00 30.00 1037.50 65.50 Q 1084.00 101.00 1109.50 164.50 Q 1135.00 228.00 1145.00 313.00 L 1387.00 313.00 Q 1502.00 313.00 1560.00 364.50 Q 1618.00 416.00 1618.00 512.00 Q 1618.00 579.00 1579.50 648.00 Q 1541.00 717.00 1485.00 788.00 Q 1462.00 818.00 1447.00 842.00 Q 1432.00 866.00 1425.00 889.50 Q 1418.00 913.00 1418.00 944.00 Q 1418.00 982.00 1439.00 1021.00 L 1357.00 1021.00 Z" fill="currentColor"/></g></g></svg>